<?xml version="1.0" encoding="UTF-8" standalone="no"?>
<svg width="2953px" height="1025px" viewBox="0 0 2953 1025" version="1.1" xmlns="http://www.w3.org/2000/svg" xmlns:xlink="http://www.w3.org/1999/xlink" xmlns:sketch="http://www.bohemiancoding.com/sketch/ns">
    <!-- Generator: Sketch 3.3.3 (12081) - http://www.bohemiancoding.com/sketch -->
    <title>Untitled 2</title>
    <desc>Created with Sketch.</desc>
    <defs></defs>
    <g id="Page-1" stroke="none" stroke-width="1" fill="none" fill-rule="evenodd" sketch:type="MSPage">
        <g id="en_get" sketch:type="MSLayerGroup">
            <g id="icomoon-ignore" transform="translate(1.000000, 1.000000)"></g>
            <path d="M2941.885,870.394 C2941.885,959.422 2876.484,1014.789 2787.524,1014.789 L172.389,1014.789 C83.388,1014.789 11.225,942.558 11.225,853.53 L11.225,172.431 C11.225,83.417 83.388,11.226 172.389,11.226 L2787.51,11.226 C2876.47,11.226 2941.871,83.416 2941.871,172.431 L2941.871,870.395 L2941.885,870.394 Z" id="Shape" fill="#000000" sketch:type="MSShapeGroup"></path>
            <path d="M2787.524,1025 L172.389,1025 C77.894,1025 1,948.079 1,853.515 L1,172.43 C1,77.908 77.894,1 172.389,1 L2787.51,1 C2879.81,1 2952.096,76.299 2952.096,172.43 L2952.096,870.394 C2952.11,962.871 2885.959,1025 2787.524,1025 L2787.524,1025 Z M172.389,21.451 C89.169,21.451 21.45,89.183 21.45,172.431 L21.45,853.516 C21.45,936.791 89.169,1004.55 172.389,1004.55 L2787.51,1004.55 C2873.73,1004.55 2931.645,950.629 2931.645,870.381 L2931.645,172.431 C2931.645,87.779 2868.316,21.451 2787.51,21.451 L172.389,21.451 L172.389,21.451 Z" id="Shape" fill="#FFFFFF" sketch:type="MSShapeGroup"></path>
            <path d="M204.75925,278.097533 C196.52425,273.584533 188.90325,272.534533 182.74125,274.443533 L421.03125,512.706533 L495.64825,438.034533 L204.75925,278.097533 Z" id="Shape" fill="#00F076" sketch:type="MSShapeGroup"></path>
            <path d="M595.33725,533.129533 C615.47425,522.018533 615.47425,503.912533 595.33725,492.855533 L495.66125,438.034533 L421.00325,512.706533 L496.04325,587.732533 L595.33725,533.129533 Z" id="Shape" fill="#FFB900" sketch:type="MSShapeGroup"></path>
            <path d="M182.72725,274.457533 C173.87925,277.225533 168.15325,286.182533 168.15325,299.734533 L168.20825,726.237533 C168.20825,739.625533 173.75725,748.474533 182.36025,751.418533 L421.03225,512.746533 L182.72925,274.456533 L182.72725,274.457533 Z" id="Shape" fill="#00D8FF" sketch:type="MSShapeGroup"></path>
            <path d="M204.75925,747.901533 L496.01625,587.732533 L421.03125,512.747533 L182.35925,751.419533 C188.54925,753.504533 196.32025,752.536533 204.75925,747.901533 Z" id="Shape" fill="#FF3A44" sketch:type="MSShapeGroup"></path>
            <path d="M692.856,225.588 C692.856,179.765 726.899,150.303 769.246,150.303 C797.618,150.303 816.16,163.828 827.735,180.42 L806.998,192.431 C799.145,181.51 785.389,173.003 769.233,173.003 C740.439,173.003 719.034,194.831 719.034,225.588 C719.034,255.923 740.425,278.173 769.233,278.173 C784.08,278.173 797.168,271.411 803.713,265.085 L803.713,242.603 L760.072,242.603 L760.072,220.135 L829.031,220.135 L829.031,274.465 C814.852,290.403 794.333,301.092 769.234,301.092 C726.901,301.092 692.858,271.207 692.858,225.589 L692.856,225.588 Z" id="Shape" fill="#FFFFFF" sketch:type="MSShapeGroup"></path>
            <path d="M860.618,298.256 L860.618,152.689 L960.335,152.689 L960.335,175.171 L886.14,175.171 L886.14,212.705 L958.821,212.705 L958.821,235.173 L886.14,235.173 L886.14,275.774 L960.335,275.774 L960.335,298.242 L860.618,298.256 L860.618,298.256 Z" id="Shape" fill="#FFFFFF" sketch:type="MSShapeGroup"></path>
            <path d="M1030.999,298.256 L1030.999,175.185 L986.921,175.185 L986.921,152.703 L1100.612,152.703 L1100.612,175.185 L1056.548,175.185 L1056.548,298.256 L1030.998,298.256 L1030.999,298.256 Z" id="Shape" fill="#FFFFFF" sketch:type="MSShapeGroup"></path>
            <path d="M1189.354,298.256 L1189.354,152.689 L1214.876,152.689 L1214.876,298.256 L1189.354,298.256 L1189.354,298.256 Z" id="Shape" fill="#FFFFFF" sketch:type="MSShapeGroup"></path>
            <path d="M1285.99,298.256 L1285.99,175.185 L1241.912,175.185 L1241.912,152.703 L1355.603,152.703 L1355.603,175.185 L1311.539,175.185 L1311.539,298.256 L1285.989,298.256 L1285.99,298.256 Z" id="Shape" fill="#FFFFFF" sketch:type="MSShapeGroup"></path>
            <path d="M1438.019,225.588 C1438.019,182.151 1468.79,150.303 1512.432,150.303 C1555.869,150.303 1586.858,182.165 1586.858,225.588 C1586.858,269.011 1555.855,300.873 1512.432,300.873 C1468.791,300.873 1438.019,269.011 1438.019,225.588 L1438.019,225.588 Z M1560.668,225.588 C1560.668,195.471 1541.676,173.003 1512.446,173.003 C1482.984,173.003 1464.21,195.471 1464.21,225.588 C1464.21,255.473 1482.984,278.173 1512.446,278.173 C1541.677,278.173 1560.668,255.473 1560.668,225.588 L1560.668,225.588 Z" id="Shape" fill="#FFFFFF" sketch:type="MSShapeGroup"></path>
            <path d="M1718.151,298.256 L1642.211,194.163 L1642.211,298.256 L1616.702,298.256 L1616.702,152.689 L1642.879,152.689 L1717.305,253.524 L1717.305,152.689 L1742.841,152.689 L1742.841,298.256 L1718.15,298.256 L1718.151,298.256 Z" id="Shape" fill="#FFFFFF" sketch:type="MSShapeGroup"></path>
        </g>
        <path d="M1365.56677,746.046606 C1307.5216,746.046606 1260.10311,702.385688 1260.10311,642.145835 C1260.10311,582.394495 1307.5216,538.275596 1365.56677,538.275596 C1423.73551,538.275596 1471.154,582.394495 1471.154,642.145835 C1471.154,702.385688 1423.73551,746.046606 1365.56677,746.046606 L1365.56677,746.046606 Z M1365.56677,579.188624 C1333.71761,579.188624 1306.31683,605.17145 1306.31683,642.145835 C1306.31683,679.608734 1333.71761,705.133578 1365.56677,705.133578 C1397.41593,705.133578 1424.94028,679.608734 1424.94028,642.145835 C1424.94028,605.17145 1397.41593,579.188624 1365.56677,579.188624 L1365.56677,579.188624 Z M1135.45581,746.046606 C1077.28707,746.046606 1029.99214,702.385688 1029.99214,642.145835 C1029.99214,582.394495 1077.28707,538.275596 1135.45581,538.275596 C1193.59366,538.275596 1240.91947,582.394495 1240.91947,642.145835 C1240.91947,702.385688 1193.59366,746.046606 1135.45581,746.046606 L1135.45581,746.046606 Z M1135.45581,579.188624 C1103.57575,579.188624 1076.0823,605.17145 1076.0823,642.145835 C1076.0823,679.608734 1103.57575,705.133578 1135.45581,705.133578 C1167.30497,705.133578 1194.70575,679.608734 1194.70575,642.145835 C1194.70575,605.17145 1167.30497,579.188624 1135.45581,579.188624 L1135.45581,579.188624 Z M861.633336,714.201615 L861.633336,670.052183 L968.301769,670.052183 C965.181725,645.382239 956.841014,627.246165 944.051923,614.605872 C928.482594,599.339817 904.232748,582.394495 861.633336,582.394495 C795.988847,582.394495 744.585351,634.757064 744.585351,699.637798 C744.585351,764.518532 795.988847,816.881101 861.633336,816.881101 C897.127697,816.881101 922.953012,803.172183 942.013082,785.402495 L973.491545,816.514716 C946.83216,841.673174 911.36869,861 861.633336,861 C771.615434,861 695.962092,788.608367 695.962092,699.637798 C695.962092,610.667229 771.615434,538.275596 861.633336,538.275596 C910.287487,538.275596 946.83216,554.030165 975.561277,583.585248 C1005.0009,612.682349 1014.17568,653.595376 1014.17568,686.631119 C1014.17568,696.889908 1013.31072,706.32433 1011.76614,714.201615 L861.633336,714.201615 L861.633336,714.201615 Z M1981.32752,679.975119 C1972.647,703.210055 1945.86405,746.046606 1891.30962,746.046606 C1837.24945,746.046606 1792.2405,703.942826 1792.2405,642.145835 C1792.2405,583.951633 1836.78608,538.275596 1896.4994,538.275596 C1944.78285,538.275596 1972.647,567.372697 1984.10776,584.318018 L1948.27359,607.919339 C1936.31857,590.638165 1920.03874,579.188624 1896.4994,579.188624 C1873.11451,579.188624 1856.34042,589.783266 1845.59017,610.667229 L1986.17749,668.159193 L1981.32752,679.975119 L1981.32752,679.975119 Z M1837.99085,645.382239 C1836.78608,685.440367 1869.46931,705.957945 1892.88509,705.957945 C1911.23465,705.957945 1926.80398,696.889908 1931.99376,683.913761 L1837.99085,645.382239 L1837.99085,645.382239 Z M1723.7231,544.595743 L1769.93682,544.595743 L1769.93682,849.916844 L1723.7231,849.916844 L1723.7231,544.595743 L1723.7231,544.595743 Z M1648.03887,722.903266 L1646.49429,722.903266 C1636.11474,735.055046 1616.31327,746.046606 1591.22935,746.046606 C1538.5902,746.046606 1490.4612,700.370569 1490.4612,641.809982 C1490.4612,583.585248 1538.5902,538.275596 1591.22935,538.275596 C1616.31327,538.275596 1636.11474,549.358752 1646.49429,561.876917 L1648.03887,561.876917 L1648.03887,546.977248 C1648.03887,507.254972 1626.56926,485.913028 1591.93986,485.913028 C1563.70501,485.913028 1546.18951,506.06422 1538.9609,523.009541 L1498.77102,506.430606 C1510.35534,478.890642 1541.03063,445 1591.93986,445 C1646.12359,445 1691.84305,476.509138 1691.84305,553.175266 L1691.84305,739.726459 L1648.03887,739.726459 L1648.03887,722.903266 L1648.03887,722.903266 Z M1595.18347,579.188624 C1563.33431,579.188624 1536.67492,605.537835 1536.67492,641.809982 C1536.67492,678.417982 1563.33431,705.133578 1595.18347,705.133578 C1626.56926,705.133578 1651.31337,678.417982 1651.31337,641.809982 C1651.31337,605.537835 1626.56926,579.188624 1595.18347,579.188624 L1595.18347,579.188624 Z M2197.69176,849.916844 L2087.16188,849.916844 L2087.16188,544.595743 L2133.25204,544.595743 L2133.25204,660.281908 L2197.69176,660.281908 C2248.87901,660.281908 2299.07774,696.889908 2299.07774,755.114642 C2299.07774,813.308844 2248.75545,849.916844 2197.69176,849.916844 L2197.69176,849.916844 Z M2198.89653,702.752073 L2133.25204,702.752073 L2133.25204,807.446679 L2198.89653,807.446679 C2233.30969,807.446679 2252.95669,779.204477 2252.95669,755.114642 C2252.95669,731.482789 2233.30969,702.752073 2198.89653,702.752073 L2198.89653,702.752073 Z M2483.80906,746.626716 C2450.50799,746.626716 2415.87859,732.093431 2401.6376,699.882055 L2442.53798,682.936734 C2451.34206,699.882055 2467.52922,705.377835 2484.64313,705.377835 C2508.55317,705.377835 2532.80301,691.180404 2533.17371,666.113541 L2533.17371,662.90767 C2524.833,667.670679 2506.9777,674.723596 2485.01382,674.723596 C2440.96251,674.723596 2396.07713,650.75589 2396.07713,606.026349 C2396.07713,565.113321 2432.15843,538.76411 2472.719,538.76411 C2503.73409,538.76411 2520.84799,552.595156 2531.59824,568.685578 L2533.17371,568.685578 L2533.17371,545.084257 L2577.6884,545.084257 L2577.6884,662.205431 C2577.6884,716.338862 2536.78802,746.626716 2483.80906,746.626716 L2483.80906,746.626716 Z M2478.24858,579.310752 C2463.17352,579.310752 2442.16728,586.699523 2442.16728,605.17145 C2442.16728,628.803303 2468.36329,637.871339 2491.03767,637.871339 C2511.3334,637.871339 2520.84799,633.444183 2533.17371,627.61255 C2529.5594,599.339817 2504.93886,579.310752 2478.24858,579.310752 L2478.24858,579.310752 Z M2739.8689,739.940183 L2686.88994,607.583486 L2685.31447,607.583486 L2630.5438,739.940183 L2580.83933,739.940183 L2663.13435,554.976661 L2616.17924,452.052917 L2664.33912,452.052917 L2791.14883,739.940183 L2739.8689,739.940183 L2739.8689,739.940183 Z M2324.40879,544.595743 L2370.62251,544.595743 L2370.62251,849.916844 L2324.40879,849.916844 L2324.40879,544.595743 L2324.40879,544.595743 Z" id="path46" fill="#FFFFFF" sketch:type="MSShapeGroup" transform="translate(1743.555461, 653.000000) scale(-1, 1) rotate(-180.000000) translate(-1743.555461, -653.000000) "></path>
    </g>
</svg>